<svg width="510" height="65" viewBox="0 0 503 65" fill="none" xmlns="http://www.w3.org/2000/svg">
<path d="M503 5C503 2.23858 500.761 0 498 0H5.20261C0.729645 0 -1.49277 5.4238 1.69415 8.56242L57.5403 63.5624C58.4757 64.4836 59.7359 65 61.0487 65H498C500.761 65 503 62.7614 503 60V5Z" fill="#E9552F"/>
<path d="M503 5C503 2.23858 500.761 0 498 0H5.20261C0.729645 0 -1.49277 5.4238 1.69415 8.56242L57.5403 63.5624C58.4757 64.4836 59.7359 65 61.0487 65H498C500.761 65 503 62.7614 503 60V5Z" fill="url(#paint0_linear_1_4619)" fill-opacity="0.15"/>
<defs>
<linearGradient id="paint0_linear_1_4619" x1="209.992" y1="-119.925" x2="519.615" y2="165.064" gradientUnits="userSpaceOnUse">
<stop stop-color="white"/>
<stop offset="1" stop-color="white" stop-opacity="0"/>
</linearGradient>
</defs>
</svg>
