<svg width="53" height="38" viewBox="0 0 53 38" fill="none" xmlns="http://www.w3.org/2000/svg">
<path d="M7.70336 25.526L21.6894 7.76H7.70336V25.526ZM26.5494 30.44V12.836L12.8334 30.44H26.5494ZM30.3294 38H3.86936L0.143359 34.274V4.034L3.86936 0.199997H30.3294L34.0554 4.034V34.274L30.3294 38ZM52.8765 38H45.3705V7.76H37.8105V0.199997H52.8765V38Z" fill="#EE562F"/>
<path d="M7.70336 25.526L21.6894 7.76H7.70336V25.526ZM26.5494 30.44V12.836L12.8334 30.44H26.5494ZM30.3294 38H3.86936L0.143359 34.274V4.034L3.86936 0.199997H30.3294L34.0554 4.034V34.274L30.3294 38ZM52.8765 38H45.3705V7.76H37.8105V0.199997H52.8765V38Z" fill="url(#paint0_linear_2_5382)" fill-opacity="0.15"/>
<defs>
<linearGradient id="paint0_linear_2_5382" x1="-3" y1="-17" x2="56" y2="48" gradientUnits="userSpaceOnUse">
<stop stop-color="white" stop-opacity="0"/>
<stop offset="0.546875" stop-color="white"/>
<stop offset="1" stop-color="white" stop-opacity="0"/>
</linearGradient>
</defs>
</svg>
