<svg width="99" height="95" viewBox="0 0 99 95" fill="none" xmlns="http://www.w3.org/2000/svg">
<path d="M98.4678 48.5195H73.9263V94.2878H98.4678V48.5195Z" fill="white"/>
<path d="M89.7512 3.32119C90.3098 3.85538 90.3098 4.71552 89.7512 5.24065L58.1086 35.454C57.5499 35.9792 56.6599 35.9792 56.1013 35.454L36.843 17.0743L0.589355 51.6789L4.12099 55.047L35.8394 24.7703C36.398 24.2451 37.288 24.2451 37.8466 24.7703L57.1049 43.1409L93.2828 8.60876C93.8415 8.08363 94.7315 8.08363 95.2901 8.60876L98.4714 11.6419V0.288086H86.5794L89.7512 3.32119Z" fill="#EE562F"/>
<path d="M61.5088 58.6152H36.9673V94.2882H61.5088V58.6152Z" fill="white"/>
<path d="M24.5415 68.7002H0V94.287H24.5415V68.7002Z" fill="white"/>
</svg>
