<svg width="368" height="65" viewBox="0 0 368 65" fill="none" xmlns="http://www.w3.org/2000/svg">
<path d="M0 20C0 8.9543 8.95431 0 20 0H362.797C367.27 0 369.493 5.4238 366.306 8.56242L310.46 63.5624C309.524 64.4836 308.264 65 306.951 65H5C2.23858 65 0 62.7614 0 60V20Z" fill="#E9552F"/>
<path d="M0 20C0 8.9543 8.95431 0 20 0H362.797C367.27 0 369.493 5.4238 366.306 8.56242L310.46 63.5624C309.524 64.4836 308.264 65 306.951 65H5C2.23858 65 0 62.7614 0 60V20Z" fill="url(#paint0_linear_1_4592)" fill-opacity="0.15"/>
<defs>
<linearGradient id="paint0_linear_1_4592" x1="338.008" y1="-119.925" x2="28.3848" y2="165.063" gradientUnits="userSpaceOnUse">
<stop stop-color="white"/>
<stop offset="1" stop-color="white" stop-opacity="0"/>
</linearGradient>
</defs>
</svg>
