<svg width="40" height="40" viewBox="0 0 40 40" fill="none" xmlns="http://www.w3.org/2000/svg">
<circle cx="20" cy="20" r="20" fill="#EE562F"/>
<circle cx="20" cy="20" r="19.5" stroke="white" stroke-opacity="0.1"/>
<path fill-rule="evenodd" clip-rule="evenodd" d="M26.1741 22.1782C25.513 21.7847 24.6631 21.344 23.8762 21.6588C23.2781 21.8949 22.9003 22.8393 22.5226 23.3115C22.3179 23.5633 22.0819 23.5947 21.7828 23.4688C19.5478 22.5717 17.8322 21.0922 16.6045 19.0303C16.3999 18.7155 16.4314 18.4637 16.6833 18.1646C17.061 17.7239 17.5175 17.236 17.6276 16.6379C17.7221 16.0398 17.4545 15.363 17.2027 14.8278C16.8879 14.151 16.5416 13.1909 15.8648 12.8132C15.251 12.4669 14.4326 12.6558 13.8817 13.1122C12.9373 13.8835 12.4651 15.0954 12.4808 16.3074C12.4808 16.6536 12.5281 16.9842 12.6068 17.3147C12.7957 18.1017 13.1734 18.8572 13.5826 19.5497C13.8974 20.0848 14.2279 20.6043 14.5899 21.0922C15.7861 22.7133 17.2656 24.1299 18.997 25.1845C19.8626 25.7039 20.7755 26.176 21.7356 26.4908C22.8059 26.8528 23.766 27.2148 24.9307 26.9945C26.1426 26.7584 27.3388 26.0186 27.8267 24.8382C27.9684 24.4919 28.0471 24.0984 27.9684 23.7364C27.811 22.9809 26.7722 22.5245 26.1583 22.1625L26.1741 22.1782Z" fill="white"/>
</svg>
