<svg width="30" height="30" viewBox="0 0 30 30" fill="none" xmlns="http://www.w3.org/2000/svg">
<circle cx="15" cy="15" r="15" fill="#EE562F"/>
<circle cx="15" cy="15" r="14.5" stroke="white" stroke-opacity="0.1"/>
<path fill-rule="evenodd" clip-rule="evenodd" d="M19.6306 16.6341C19.1348 16.339 18.4973 16.0085 17.9071 16.2446C17.4586 16.4216 17.1752 17.1299 16.8919 17.4841C16.7385 17.673 16.5614 17.6965 16.3371 17.6021C14.6609 16.9292 13.3742 15.8196 12.4534 14.2732C12.3 14.0371 12.3236 13.8482 12.5125 13.6239C12.7958 13.2934 13.1381 12.9275 13.2207 12.4789C13.2916 12.0303 13.0909 11.5227 12.902 11.1214C12.6659 10.6138 12.4062 9.89369 11.8986 9.61038C11.4382 9.35068 10.8244 9.49234 10.4113 9.83467C9.70299 10.4131 9.34883 11.3221 9.36064 12.231C9.36064 12.4907 9.39607 12.7386 9.45509 12.9865C9.59675 13.5768 9.88005 14.1434 10.187 14.6628C10.4231 15.0641 10.6709 15.4537 10.9424 15.8196C11.8396 17.0355 12.9492 18.0979 14.2477 18.8888C14.897 19.2784 15.5816 19.6325 16.3017 19.8686C17.1044 20.1401 17.8245 20.4116 18.698 20.2464C19.607 20.0693 20.5041 19.5145 20.87 18.6291C20.9763 18.3694 21.0353 18.0743 20.9763 17.8028C20.8582 17.2362 20.0791 16.8938 19.6188 16.6223L19.6306 16.6341Z" fill="white"/>
</svg>
