<svg width="30" height="30" viewBox="0 0 30 30" fill="none" xmlns="http://www.w3.org/2000/svg">
<path d="M15.0003 0C6.71578 0 0 6.71566 0 15C0 23.2843 6.71578 30 15.0003 30C23.2847 30 30.0005 23.2843 30.0005 15C30.0005 6.71566 23.2847 0 15.0003 0Z" fill="#EE562F"/>
<path d="M22.2991 8.62861L19.6199 22.1365C19.6199 22.1365 19.2453 23.0733 18.2148 22.6236L12.0321 17.8836L9.78399 16.797L5.99947 15.523C5.99947 15.523 5.41868 15.317 5.36243 14.8673C5.30629 14.4177 6.01822 14.1742 6.01822 14.1742L21.0625 8.27259C21.0625 8.27259 22.2991 7.72931 22.2991 8.62861Z" fill="white"/>
<path d="M11.557 21.9848C11.557 21.9848 11.3765 21.9679 11.1516 21.2559C10.9268 20.544 9.78399 16.797 9.78399 16.797L18.8705 11.0267C18.8705 11.0267 19.3952 10.7082 19.3764 11.0267C19.3764 11.0267 19.4701 11.0828 19.189 11.3451C18.908 11.6075 12.0509 17.7712 12.0509 17.7712" fill="#D2E5F1"/>
<path d="M14.4028 19.701L11.9573 21.9306C11.9573 21.9306 11.7662 22.0757 11.557 21.9848L12.0252 17.8433" fill="#B5CFE4"/>
</svg>
