<svg width="47" height="40" viewBox="0 0 48 40" fill="none" xmlns="http://www.w3.org/2000/svg">
<g filter="url(#filter0_d_211_1349)">
<path d="M44 20C44 8.95431 35.0457 2.45765e-06 24 2.94047e-06C12.9543 3.42329e-06 4 8.95431 4 20C4 31.0457 12.9543 40 24 40C35.0457 40 44 31.0457 44 20Z" fill="#EE562F"/>
<path d="M13.1904 31.2903L14.8637 25.0721C13.914 23.3649 13.4279 21.4542 13.4279 19.5209C13.4279 13.1896 18.5833 8.03418 24.9146 8.03418C31.2458 8.03418 36.4013 13.1896 36.4013 19.5209C36.4013 25.8522 31.2458 31.0076 24.9146 31.0076C23.0152 31.0076 21.1384 30.5328 19.4539 29.617L13.2017 31.2903H13.1904ZM19.7591 27.288L20.1548 27.5254C21.602 28.3846 23.2413 28.8369 24.9146 28.8369C30.0474 28.8369 34.2306 24.6537 34.2306 19.5209C34.2306 14.3881 30.0474 10.2049 24.9146 10.2049C19.7817 10.2049 15.5986 14.3881 15.5986 19.5209C15.5986 21.2168 16.0734 22.89 16.9666 24.3485L17.204 24.7442L16.2769 28.2151L19.7704 27.2767L19.7591 27.288Z" fill="white"/>
<path fill-rule="evenodd" clip-rule="evenodd" d="M29.1767 21.1149C28.7018 20.8323 28.0913 20.5157 27.526 20.7418C27.0964 20.9114 26.8251 21.5898 26.5537 21.9289C26.4067 22.1098 26.2372 22.1324 26.0223 22.042C24.4169 21.3975 23.1846 20.3348 22.3027 18.8537C22.1557 18.6276 22.1784 18.4467 22.3593 18.2319C22.6306 17.9153 22.9585 17.5649 23.0376 17.1352C23.1055 16.7056 22.9132 16.2195 22.7324 15.8351C22.5062 15.3489 22.2575 14.6593 21.7713 14.3879C21.3304 14.1392 20.7425 14.2749 20.3468 14.6027C19.6685 15.1567 19.3293 16.0273 19.3406 16.8978C19.3406 17.1465 19.3745 17.384 19.4311 17.6214C19.5667 18.1867 19.8381 18.7294 20.132 19.2268C20.3581 19.6112 20.5955 19.9843 20.8556 20.3348C21.7148 21.4993 22.7776 22.5168 24.0212 23.2743C24.6431 23.6474 25.2988 23.9866 25.9884 24.2127C26.7572 24.4727 27.4469 24.7328 28.2835 24.5745C29.1541 24.4049 30.0133 23.8735 30.3638 23.0256C30.4655 22.7769 30.5221 22.4942 30.4655 22.2342C30.3525 21.6915 29.6063 21.3636 29.1654 21.1036L29.1767 21.1149Z" fill="white"/>
</g>
<defs>
<filter id="filter0_d_211_1349" x="0" y="0" width="50" height="50" filterUnits="userSpaceOnUse" color-interpolation-filters="sRGB">
<feFlood flood-opacity="0" result="BackgroundImageFix"/>
<feColorMatrix in="SourceAlpha" type="matrix" values="0 0 0 0 0 0 0 0 0 0 0 0 0 0 0 0 0 0 127 0" result="hardAlpha"/>
<feOffset dy="4"/>
<feGaussianBlur stdDeviation="2"/>
<feComposite in2="hardAlpha" operator="out"/>
<feColorMatrix type="matrix" values="0 0 0 0 0 0 0 0 0 0 0 0 0 0 0 0 0 0 0.25 0"/>
<feBlend mode="normal" in2="BackgroundImageFix" result="effect1_dropShadow_211_1349"/>
<feBlend mode="normal" in="SourceGraphic" in2="effect1_dropShadow_211_1349" result="shape"/>
</filter>
</defs>
</svg>
