<svg width="30" height="30" viewBox="0 0 30 30" fill="none" xmlns="http://www.w3.org/2000/svg">
<path d="M30 15C30 6.71573 23.2843 8.89561e-07 15 1.25168e-06C6.71573 1.61379e-06 -1.01779e-06 6.71573 -6.55671e-07 15C-2.93554e-07 23.2843 6.71573 30 15 30C23.2843 30 30 23.2843 30 15Z" fill="#EE562F"/>
<path d="M6.89258 23.4675L8.14753 18.8038C7.43527 17.5234 7.07066 16.0904 7.07066 14.6404C7.07066 9.89198 10.9372 6.02539 15.6857 6.02539C20.4341 6.02539 24.3007 9.89198 24.3007 14.6404C24.3007 19.3889 20.4341 23.2555 15.6857 23.2555C14.2611 23.2555 12.8536 22.8993 11.5902 22.2125L6.90107 23.4675H6.89258ZM11.8191 20.4657L12.1159 20.6438C13.2012 21.2882 14.4307 21.6274 15.6857 21.6274C19.5353 21.6274 22.6727 18.4901 22.6727 14.6404C22.6727 10.7908 19.5353 7.65344 15.6857 7.65344C11.836 7.65344 8.69869 10.7908 8.69869 14.6404C8.69869 15.9123 9.05481 17.1673 9.72468 18.2611L9.90277 18.5579L9.20745 21.1611L11.8276 20.4573L11.8191 20.4657Z" fill="white"/>
<path fill-rule="evenodd" clip-rule="evenodd" d="M18.8824 15.8357C18.5263 15.6237 18.0684 15.3863 17.6444 15.5559C17.3222 15.683 17.1187 16.1918 16.9152 16.4462C16.8049 16.5819 16.6777 16.5988 16.5166 16.531C15.3126 16.0477 14.3883 15.2506 13.7269 14.1398C13.6167 13.9702 13.6337 13.8345 13.7693 13.6734C13.9728 13.436 14.2187 13.1732 14.2781 12.8509C14.329 12.5287 14.1848 12.1641 14.0491 11.8758C13.8796 11.5112 13.693 10.994 13.3284 10.7905C12.9977 10.6039 12.5568 10.7057 12.26 10.9516C11.7512 11.3671 11.4969 12.02 11.5053 12.6729C11.5053 12.8594 11.5308 13.0375 11.5732 13.2156C11.6749 13.6395 11.8784 14.0465 12.0989 14.4196C12.2685 14.7079 12.4465 14.9878 12.6416 15.2506C13.286 16.124 14.0831 16.8871 15.0158 17.4553C15.4822 17.7351 15.974 17.9894 16.4912 18.159C17.0678 18.3541 17.585 18.5491 18.2125 18.4304C18.8654 18.3032 19.5099 17.9047 19.7727 17.2687C19.849 17.0822 19.8914 16.8702 19.849 16.6751C19.7642 16.2681 19.2046 16.0222 18.8739 15.8272L18.8824 15.8357Z" fill="white"/>
</svg>
