<svg width="40" height="40" viewBox="0 0 40 40" fill="none" xmlns="http://www.w3.org/2000/svg">
<path d="M20 39.9993C31.0457 39.9993 40 31.0452 40 19.9996C40 8.95413 31.0457 0 20 0C8.95431 0 0 8.95413 0 19.9996C0 31.0452 8.95431 39.9993 20 39.9993Z" fill="#EE562F"/>
<path d="M30.7069 17.1399C30.7069 14.483 28.5588 12.335 25.902 12.335H13.6238C10.967 12.335 8.81885 14.483 8.81885 17.1399V22.8605C8.81885 25.5174 10.967 27.6654 13.6238 27.6654H25.902C28.5588 27.6654 30.7069 25.5174 30.7069 22.8605V17.1399ZM23.4825 20.4298L17.9766 23.1545C17.7618 23.2675 17.0269 23.1092 17.0269 22.8718V17.2756C17.0269 17.0268 17.7618 16.8686 17.9879 16.9929L23.2564 19.8645C23.4825 19.9889 23.7086 20.3054 23.4825 20.4298Z" fill="white"/>
</svg>
