<svg width="30" height="30" viewBox="0 0 30 30" fill="none" xmlns="http://www.w3.org/2000/svg">
<path d="M15 29.9995C23.2843 29.9995 30 23.2839 30 14.9997C30 6.7156 23.2843 0 15 0C6.71573 0 0 6.7156 0 14.9997C0 23.2839 6.71573 29.9995 15 29.9995Z" fill="#EE562F"/>
<path d="M23.0301 12.8546C23.0301 10.862 21.419 9.25098 19.4263 9.25098H10.2177C8.22509 9.25098 6.61401 10.862 6.61401 12.8546V17.1452C6.61401 19.1378 8.22509 20.7488 10.2177 20.7488H19.4263C21.419 20.7488 23.0301 19.1378 23.0301 17.1452V12.8546ZM17.6118 15.3221L13.4823 17.3656C13.3212 17.4504 12.77 17.3317 12.77 17.1536V12.9564C12.77 12.7699 13.3212 12.6512 13.4908 12.7444L17.4422 14.8981C17.6118 14.9914 17.7813 15.2288 17.6118 15.3221Z" fill="white"/>
</svg>
