<svg width="150" height="150" viewBox="0 0 150 150" fill="none" xmlns="http://www.w3.org/2000/svg">
<path d="M25 0H150V150H0V25L25 0Z" fill="#333333"/>
<path fill-rule="evenodd" clip-rule="evenodd" d="M46.904 28.321C44.356 28.321 42.036 30.238 42.067 32.882C41.631 32.741 41.161 32.664 40.671 32.664C38.406 32.664 36.571 34.305 36.571 36.329C36.571 38.353 38.407 39.994 40.671 39.994C40.891 39.994 41.106 39.978 41.317 39.949C40.393 42.891 42.279 45.804 45.189 46.625V49.21H52.142V44.671C53.938 48.083 58.781 48.664 61.495 46.04C62.272 48.101 64.377 49.58 66.853 49.58C69.989 49.58 72.531 47.21 72.531 44.285C72.531 42.765 71.844 41.395 70.745 40.43C70.926 40.453 71.11 40.464 71.297 40.464C73.564 40.464 75.401 38.751 75.401 36.637C75.401 34.523 73.563 32.81 71.297 32.81C70.582 32.81 69.909 32.981 69.324 33.281C68.738 30.277 65.919 28 62.529 28C60.014 28 57.812 29.254 56.605 31.128C55.18 29.654 52.792 29.454 51.116 30.611C50.284 29.243 48.71 28.321 46.904 28.321ZM41.011 52.228H56.321C57.049 52.228 57.642 52.821 57.642 53.549V55.028C57.642 55.756 57.049 56.349 56.321 56.349H41.011C40.283 56.349 39.69 55.756 39.69 55.028V53.549C39.69 52.821 40.284 52.228 41.011 52.228ZM33.321 105.636H79.196C79.679 107.526 80.416 109.314 81.367 110.962H33.321C32.593 110.962 32 110.369 32 109.641V106.957C32 106.23 32.593 105.636 33.321 105.636ZM57.667 67.955L61.837 102.617H35.494L39.664 67.955H57.667ZM56.634 59.368L57.304 64.935H40.028L40.698 59.368H56.634ZM60.549 66.63L64.879 102.617H78.654C78.576 101.875 78.534 101.122 78.534 100.359C78.534 88.627 88.045 79.116 99.777 79.116C104.018 79.116 107.968 80.359 111.284 82.5V61.938C111.284 60.971 110.29 60.334 109.411 60.738L93.258 68.166V61.939C93.258 60.972 92.264 60.335 91.385 60.739L75.232 68.167V61.94C75.232 60.973 74.238 60.336 73.359 60.74L60.549 66.63ZM101.354 76.585C100.598 76.93 99.706 76.598 99.361 75.842C99.016 75.086 99.348 74.194 100.104 73.849L106.945 70.703C107.701 70.358 108.593 70.69 108.938 71.446C109.283 72.202 108.951 73.094 108.195 73.439L101.354 76.585ZM83.328 76.585C82.572 76.93 81.68 76.598 81.335 75.842C80.99 75.086 81.322 74.194 82.078 73.849L88.919 70.703C89.675 70.358 90.567 70.69 90.912 71.446C91.257 72.202 90.925 73.094 90.169 73.439L83.328 76.585ZM65.303 76.585C64.547 76.93 63.655 76.598 63.31 75.842C62.965 75.086 63.297 74.194 64.053 73.849L70.894 70.703C71.65 70.358 72.542 70.69 72.887 71.446C73.232 72.202 72.9 73.094 72.144 73.439L65.303 76.585Z" fill="white"/>
<path fill-rule="evenodd" clip-rule="evenodd" d="M118 100.276C118 110.341 109.841 118.5 99.776 118.5C89.711 118.5 81.552 110.341 81.552 100.276C81.552 90.211 89.711 82.052 99.776 82.052C109.841 82.052 118 90.211 118 100.276ZM101.547 87.196L102.381 89.364C103.535 89.639 104.638 90.096 105.649 90.719L107.775 89.777L110.278 92.28L109.335 94.403C109.957 95.414 110.415 96.518 110.69 97.673L112.857 98.507V102.047L110.689 102.881C110.414 104.036 109.956 105.139 109.334 106.15L110.277 108.274L107.774 110.777L105.651 109.834C104.64 110.456 103.536 110.914 102.381 111.189L101.547 113.356H98.007L97.173 111.188C96.018 110.913 94.915 110.455 93.904 109.833L91.78 110.776L89.277 108.273L90.22 106.15C89.598 105.139 89.14 104.035 88.865 102.88L86.698 102.046V98.506L88.865 97.672C89.14 96.517 89.598 95.414 90.22 94.403L89.277 92.279L91.78 89.776L93.904 90.719C94.915 90.097 96.018 89.639 97.173 89.364L98.007 87.196H101.547ZM99.776 94.102C96.366 94.102 93.602 96.866 93.602 100.276C93.602 103.686 96.366 106.45 99.776 106.45C103.186 106.45 105.95 103.686 105.95 100.276C105.95 96.866 103.186 94.102 99.776 94.102Z" fill="#E55137"/>
<path fill-rule="evenodd" clip-rule="evenodd" d="M118 100.276C118 110.341 109.841 118.5 99.776 118.5C89.711 118.5 81.552 110.341 81.552 100.276C81.552 90.211 89.711 82.052 99.776 82.052C109.841 82.052 118 90.211 118 100.276ZM101.547 87.196L102.381 89.364C103.535 89.639 104.638 90.096 105.649 90.719L107.775 89.777L110.278 92.28L109.335 94.403C109.957 95.414 110.415 96.518 110.69 97.673L112.857 98.507V102.047L110.689 102.881C110.414 104.036 109.956 105.139 109.334 106.15L110.277 108.274L107.774 110.777L105.651 109.834C104.64 110.456 103.536 110.914 102.381 111.189L101.547 113.356H98.007L97.173 111.188C96.018 110.913 94.915 110.455 93.904 109.833L91.78 110.776L89.277 108.273L90.22 106.15C89.598 105.139 89.14 104.035 88.865 102.88L86.698 102.046V98.506L88.865 97.672C89.14 96.517 89.598 95.414 90.22 94.403L89.277 92.279L91.78 89.776L93.904 90.719C94.915 90.097 96.018 89.639 97.173 89.364L98.007 87.196H101.547ZM99.776 94.102C96.366 94.102 93.602 96.866 93.602 100.276C93.602 103.686 96.366 106.45 99.776 106.45C103.186 106.45 105.95 103.686 105.95 100.276C105.95 96.866 103.186 94.102 99.776 94.102Z" fill="url(#paint0_linear_2_5527)" fill-opacity="0.2"/>
<path d="M5.5 25.2071L25.2071 5.5H144.5V119.793L119.793 144.5H5.5V25.2071Z" stroke="white"/>
<path d="M144.5 144.5H129.207L144.5 129.207V144.5Z" fill="white" stroke="white"/>
<defs>
<linearGradient id="paint0_linear_2_5527" x1="118" y1="78.5" x2="78.5" y2="119" gradientUnits="userSpaceOnUse">
<stop stop-color="white"/>
<stop offset="1" stop-color="white" stop-opacity="0"/>
</linearGradient>
</defs>
</svg>
