<svg width="150" height="150" viewBox="0 0 150 150" fill="none" xmlns="http://www.w3.org/2000/svg">
<path d="M25 0H150V150H0V25L25 0Z" fill="#333333"/>
<path d="M115.944 61.8722H35.0556V28H30C30 63.5377 30 83.4623 30 119H35.0556V107.372H115.944V119H121V28H115.944V61.8722ZM35.0556 102.317V66.9278H115.944V102.317H35.0556Z" fill="#E55137"/>
<path d="M62.3558 36.0889C62.0903 36.0889 61.8273 36.1411 61.582 36.2427C61.3366 36.3443 61.1137 36.4933 60.9259 36.681C60.7381 36.8688 60.5892 37.0917 60.4875 37.337C60.3859 37.5824 60.3336 37.8453 60.3336 38.1109V55.3C60.3336 55.8363 60.5466 56.3507 60.9259 56.7299C61.3051 57.1092 61.8195 57.3222 62.3558 57.3222H88.6442C88.9098 57.3222 89.1727 57.2699 89.4181 57.1683C89.6634 57.0667 89.8863 56.9177 90.0741 56.7299C90.2619 56.5421 90.4109 56.3192 90.5125 56.0739C90.6141 55.8285 90.6664 55.5656 90.6664 55.3V38.1109C90.6664 37.8453 90.6141 37.5824 90.5125 37.337C90.4108 37.0917 90.2619 36.8688 90.0741 36.681C89.8863 36.4933 89.6634 36.3443 89.418 36.2427C89.1727 36.1411 88.9098 36.0889 88.6442 36.0889H78.5333V47.211C78.5333 47.6093 78.4549 48.0038 78.3024 48.3718C78.15 48.7398 77.9266 49.0742 77.6449 49.3559C77.3632 49.6376 77.0288 49.861 76.6608 50.0134C76.2928 50.1659 75.8983 50.2443 75.5 50.2443C75.1017 50.2443 74.7072 50.1659 74.3392 50.0134C73.9712 49.861 73.6368 49.6376 73.3551 49.3559C73.0734 49.0742 72.85 48.7398 72.6976 48.3718C72.5451 48.0038 72.4667 47.6093 72.4667 47.211V36.0889H62.3558Z" fill="white"/>
<path d="M69.4331 76.5333H59.3222V87.6554C59.3222 88.0538 59.2438 88.4482 59.0913 88.8163C58.9389 89.1843 58.7154 89.5187 58.4338 89.8004C58.1521 90.0821 57.8177 90.3055 57.4497 90.4579C57.0816 90.6104 56.6872 90.6888 56.2888 90.6888C55.8905 90.6888 55.496 90.6104 55.128 90.4579C54.76 90.3055 54.4256 90.0821 54.1439 89.8004C53.8622 89.5187 53.6388 89.1843 53.4863 88.8163C53.3339 88.4482 53.2554 88.0538 53.2554 87.6554V76.5333H43.1444C42.8789 76.5333 42.616 76.5856 42.3707 76.6872C42.1253 76.7888 41.9024 76.9378 41.7147 77.1255C41.5269 77.3133 41.378 77.5362 41.2764 77.7815C41.1748 78.0268 41.1225 78.2898 41.1225 78.5553V95.7444C41.1224 96.2807 41.3355 96.7951 41.7146 97.1743C42.0938 97.5536 42.6082 97.7666 43.1444 97.7667H69.4331C69.9694 97.7666 70.4838 97.5536 70.863 97.1743C71.2422 96.7951 71.4553 96.2808 71.4553 95.7444V78.5553C71.4553 78.019 71.2422 77.5047 70.863 77.1255C70.4837 76.7463 69.9694 76.5333 69.4331 76.5333Z" fill="white"/>
<path d="M107.856 76.5333H97.7446V87.6554C97.7446 88.0538 97.6661 88.4482 97.5137 88.8163C97.3612 89.1843 97.1378 89.5187 96.8561 89.8004C96.5744 90.0821 96.24 90.3055 95.872 90.4579C95.504 90.6104 95.1095 90.6888 94.7112 90.6888C94.3128 90.6888 93.9184 90.6104 93.5503 90.4579C93.1823 90.3055 92.8479 90.0821 92.5662 89.8004C92.2846 89.5187 92.0611 89.1843 91.9087 88.8163C91.7562 88.4482 91.6778 88.0538 91.6778 87.6554V76.5333H81.5669C81.0306 76.5333 80.5163 76.7463 80.137 77.1255C79.7578 77.5047 79.5447 78.019 79.5447 78.5553V95.7444C79.5447 96.2808 79.7578 96.7951 80.137 97.1743C80.5162 97.5536 81.0306 97.7666 81.5669 97.7667H107.856C108.392 97.7666 108.906 97.5536 109.285 97.1743C109.665 96.7951 109.878 96.2807 109.878 95.7444V78.5553C109.878 78.2898 109.825 78.0268 109.724 77.7815C109.622 77.5362 109.473 77.3133 109.285 77.1255C109.098 76.9378 108.875 76.7888 108.629 76.6872C108.384 76.5856 108.121 76.5333 107.856 76.5333Z" fill="white"/>
<path d="M5.5 25.2071L25.2071 5.5H144.5V119.793L119.793 144.5H5.5V25.2071Z" stroke="white"/>
<path d="M144.5 144.5H129.207L144.5 129.207V144.5Z" fill="white" stroke="white"/>
</svg>
