<svg width="150" height="150" viewBox="0 0 150 150" fill="none" xmlns="http://www.w3.org/2000/svg">
<path d="M25 0H150V150H0V25L25 0Z" fill="#333333"/>
<path d="M75 102.628C70.4756 102.631 66.0099 101.607 61.9414 99.6356V107.265C70.3569 110.432 79.6431 110.432 88.0586 107.265V99.6242C83.991 101.6 79.5253 102.627 75 102.628Z" fill="#E55137"/>
<path d="M45.3401 76.4842C44.6572 71.054 45.494 65.5413 47.7579 60.5549C50.0219 55.5685 53.625 51.3024 58.1694 48.2275V40.0839C52.1177 43.1694 47.0387 47.8597 43.4924 53.6376C39.946 59.4156 38.0701 66.0569 38.0713 72.8294C38.0713 74.0629 38.1287 75.285 38.2433 76.4842H45.3401Z" fill="#E55137"/>
<path d="M104.889 72.8294C104.888 74.0512 104.812 75.2718 104.66 76.4842H111.757C111.871 75.3421 111.929 74.0629 111.929 72.8294C111.93 66.0569 110.054 59.4156 106.508 53.6376C102.961 47.8597 97.8823 43.1694 91.8306 40.0839V48.2275C95.8589 50.9536 99.1554 54.6214 101.432 58.9101C103.708 63.1989 104.895 67.9779 104.889 72.8294Z" fill="#E55137"/>
<path d="M90.1108 36.0179H78.5197V43.1106C78.5213 43.2236 78.5001 43.3356 78.4574 43.4403C78.4148 43.5449 78.3515 43.6399 78.2713 43.7198C78.1912 43.7996 78.0958 43.8627 77.9907 43.9052C77.8857 43.9477 77.7732 43.9688 77.6599 43.9672H72.3401C72.2268 43.9688 72.1143 43.9477 72.0093 43.9052C71.9042 43.8627 71.8088 43.7996 71.7287 43.7198C71.6485 43.6399 71.5852 43.5449 71.5426 43.4403C71.4999 43.3356 71.4787 43.2236 71.4803 43.1106V36.0179H59.8892V60.814H90.1108V36.0179Z" fill="white"/>
<path d="M71.5261 34.3047L71.8701 28H62.3197L60.2217 34.3047H71.5261Z" fill="white"/>
<path d="M89.7783 34.3047L87.6803 28H78.1299L78.4739 34.3047H89.7783Z" fill="white"/>
<path d="M73.2459 34.3047H76.7541L76.4102 28H73.5898L73.2459 34.3047Z" fill="white"/>
<path d="M76.8 36.0179H73.2V42.254H76.8V36.0179Z" fill="white"/>
<path d="M60.2217 86.2039H48.6306V93.2967C48.6306 93.5239 48.54 93.7418 48.3787 93.9024C48.2175 94.063 47.9988 94.1533 47.7707 94.1533H42.451C42.3376 94.1548 42.2251 94.1337 42.1201 94.0912C42.0151 94.0487 41.9197 93.9857 41.8395 93.9058C41.7593 93.826 41.6961 93.7309 41.6534 93.6263C41.6107 93.5217 41.5895 93.4096 41.5911 93.2967V86.2039H30V111H60.2217V86.2039Z" fill="white"/>
<path d="M32.4191 78.1975L30.3325 84.4907H41.6369L41.9809 78.1975H32.4191Z" fill="white"/>
<path d="M59.8892 84.4907L57.7911 78.1975H48.2408L48.5847 84.4907H59.8892Z" fill="white"/>
<path d="M43.7006 78.1975L43.3567 84.4907H46.865L46.5096 78.1975H43.7006Z" fill="white"/>
<path d="M46.9108 86.2039H43.3108V92.4401H46.9108V86.2039Z" fill="white"/>
<path d="M108.409 86.2039V93.2967C108.41 93.4096 108.389 93.5217 108.347 93.6263C108.304 93.7309 108.241 93.826 108.16 93.9058C108.08 93.9857 107.985 94.0487 107.88 94.0912C107.775 94.1337 107.662 94.1548 107.549 94.1533H102.229C102.001 94.1533 101.783 94.063 101.621 93.9024C101.46 93.7418 101.369 93.5239 101.369 93.2967V86.2039H89.7783V111H120V86.2039H108.409Z" fill="white"/>
<path d="M119.668 84.4907L117.581 78.1975H108.019L108.363 84.4907H119.668Z" fill="white"/>
<path d="M90.1108 84.4907H101.415L101.759 78.1975H92.2089L90.1108 84.4907Z" fill="white"/>
<path d="M103.49 78.1975L103.135 84.4907H106.643L106.299 78.1975H103.49Z" fill="white"/>
<path d="M106.689 86.2039H103.089V92.4401H106.689V86.2039Z" fill="white"/>
<path d="M5.5 25.2071L25.2071 5.5H144.5V119.793L119.793 144.5H5.5V25.2071Z" stroke="white"/>
<path d="M144.5 144.5H129.207L144.5 129.207V144.5Z" fill="white" stroke="white"/>
</svg>
