<svg width="150" height="150" viewBox="0 0 150 150" fill="none" xmlns="http://www.w3.org/2000/svg">
<path d="M25 0H150V150H0V25L25 0Z" fill="#333333"/>
<path fill-rule="evenodd" clip-rule="evenodd" d="M116.055 77.653C107.497 77.653 103.204 88.02 109.255 94.071C110.37 95.186 110.37 96.993 109.255 98.108L103.109 104.253C101.994 105.368 100.187 105.368 99.072 104.253C93.021 98.202 82.654 102.496 82.654 111.053C82.654 112.63 81.376 113.907 79.8 113.907H71.109C69.533 113.907 68.255 112.63 68.255 111.053C68.255 102.485 57.895 98.194 51.837 104.253C50.722 105.368 48.915 105.368 47.8 104.253L41.654 98.108C40.539 96.993 40.539 95.186 41.654 94.071C47.705 88.02 43.411 77.653 34.854 77.653C33.277 77.653 32 76.375 32 74.799V66.108C32 64.532 33.277 63.254 34.854 63.254C43.412 63.254 47.705 52.887 41.654 46.836C40.539 45.721 40.539 43.914 41.654 42.799L47.799 36.654C48.914 35.539 50.721 35.539 51.836 36.654C57.887 42.705 68.254 38.411 68.254 29.854C68.254 28.277 69.532 27 71.108 27H79.799C81.375 27 82.653 28.277 82.653 29.854C82.653 38.412 93.02 42.705 99.071 36.654C100.186 35.539 101.993 35.539 103.108 36.654L109.253 42.799C110.368 43.914 110.368 45.721 109.253 46.836C103.202 52.887 107.496 63.254 116.053 63.254C117.63 63.254 118.907 64.532 118.907 66.108V74.799C118.909 76.374 117.632 77.653 116.055 77.653ZM98.34 70.453C98.34 57.813 88.093 47.567 75.454 47.567C62.813 47.567 52.568 57.813 52.568 70.453C52.568 83.092 62.814 93.339 75.454 93.339C88.093 93.339 98.34 83.092 98.34 70.453Z" fill="#E55137"/>
<path fill-rule="evenodd" clip-rule="evenodd" d="M116.055 77.653C107.497 77.653 103.204 88.02 109.255 94.071C110.37 95.186 110.37 96.993 109.255 98.108L103.109 104.253C101.994 105.368 100.187 105.368 99.072 104.253C93.021 98.202 82.654 102.496 82.654 111.053C82.654 112.63 81.376 113.907 79.8 113.907H71.109C69.533 113.907 68.255 112.63 68.255 111.053C68.255 102.485 57.895 98.194 51.837 104.253C50.722 105.368 48.915 105.368 47.8 104.253L41.654 98.108C40.539 96.993 40.539 95.186 41.654 94.071C47.705 88.02 43.411 77.653 34.854 77.653C33.277 77.653 32 76.375 32 74.799V66.108C32 64.532 33.277 63.254 34.854 63.254C43.412 63.254 47.705 52.887 41.654 46.836C40.539 45.721 40.539 43.914 41.654 42.799L47.799 36.654C48.914 35.539 50.721 35.539 51.836 36.654C57.887 42.705 68.254 38.411 68.254 29.854C68.254 28.277 69.532 27 71.108 27H79.799C81.375 27 82.653 28.277 82.653 29.854C82.653 38.412 93.02 42.705 99.071 36.654C100.186 35.539 101.993 35.539 103.108 36.654L109.253 42.799C110.368 43.914 110.368 45.721 109.253 46.836C103.202 52.887 107.496 63.254 116.053 63.254C117.63 63.254 118.907 64.532 118.907 66.108V74.799C118.909 76.374 117.632 77.653 116.055 77.653ZM98.34 70.453C98.34 57.813 88.093 47.567 75.454 47.567C62.813 47.567 52.568 57.813 52.568 70.453C52.568 83.092 62.814 93.339 75.454 93.339C88.093 93.339 98.34 83.092 98.34 70.453Z" fill="url(#paint0_linear_2_5542)" fill-opacity="0.15"/>
<path d="M5.5 25.2071L25.2071 5.5H144.5V119.793L119.793 144.5H5.5V25.2071Z" stroke="white"/>
<path d="M144.5 144.5H129.207L144.5 129.207V144.5Z" fill="white" stroke="white"/>
<defs>
<linearGradient id="paint0_linear_2_5542" x1="119" y1="27" x2="76.9612" y2="8.99905" gradientUnits="userSpaceOnUse">
<stop stop-color="white"/>
<stop offset="1" stop-color="white" stop-opacity="0"/>
</linearGradient>
</defs>
</svg>
