<svg width="71" height="38" viewBox="0 0 71 38" fill="none" xmlns="http://www.w3.org/2000/svg">
<path d="M7.60863 25.526L21.5946 7.76H7.60863V25.526ZM26.4546 30.44V12.836L12.7386 30.44H26.4546ZM30.2346 38H3.77463L0.0486329 34.274V4.034L3.77463 0.199997H30.2346L33.9606 4.034V34.274L30.2346 38ZM36.6357 22.934L59.2617 0.199997H66.8217V22.934H70.5477V30.44H66.8217V38H59.2617V30.44H36.6357V22.934ZM59.2617 22.934V9.866L46.0857 22.934H59.2617Z" fill="#EE562F"/>
<path d="M7.60863 25.526L21.5946 7.76H7.60863V25.526ZM26.4546 30.44V12.836L12.7386 30.44H26.4546ZM30.2346 38H3.77463L0.0486329 34.274V4.034L3.77463 0.199997H30.2346L33.9606 4.034V34.274L30.2346 38ZM36.6357 22.934L59.2617 0.199997H66.8217V22.934H70.5477V30.44H66.8217V38H59.2617V30.44H36.6357V22.934ZM59.2617 22.934V9.866L46.0857 22.934H59.2617Z" fill="url(#paint0_linear_1_4456)" fill-opacity="0.15"/>
<defs>
<linearGradient id="paint0_linear_1_4456" x1="-3" y1="-17" x2="53.0668" y2="61.5193" gradientUnits="userSpaceOnUse">
<stop stop-color="white" stop-opacity="0"/>
<stop offset="0.546875" stop-color="white"/>
<stop offset="1" stop-color="white" stop-opacity="0"/>
</linearGradient>
</defs>
</svg>
