<svg width="71" height="15" viewBox="0 0 71 15" fill="none" xmlns="http://www.w3.org/2000/svg">
<path d="M35.5601 13.9663L35.5587 14.2163L35.5601 13.9663ZM70.7501 1L67.884 1.34473L69.6156 3.65448L70.7501 1ZM1 1C0.8394 1.19159 0.839417 1.19161 0.839437 1.19162C0.839449 1.19163 0.839472 1.19165 0.839495 1.19167C0.839541 1.19171 0.839599 1.19176 0.839672 1.19182C0.839817 1.19194 0.840015 1.19211 0.840268 1.19232C0.840774 1.19274 0.841495 1.19334 0.842431 1.19413C0.844303 1.19569 0.847036 1.19796 0.850624 1.20094C0.8578 1.2069 0.868399 1.21567 0.88238 1.22717C0.910342 1.25017 0.951838 1.28407 1.00656 1.32818C1.116 1.41641 1.27833 1.54549 1.49109 1.70987C1.9166 2.03862 2.54385 2.50863 3.35301 3.07546L3.63989 2.66595C2.83762 2.10394 2.21665 1.6386 1.79679 1.31421C1.58686 1.15202 1.42723 1.02508 1.32037 0.938926C1.26694 0.895851 1.2267 0.862976 1.19997 0.840992C1.18661 0.83 1.17662 0.821731 1.17004 0.816271C1.16675 0.813541 1.16432 0.811514 1.16275 0.8102C1.16196 0.809543 1.16138 0.809064 1.16103 0.808765C1.16085 0.808615 1.16072 0.808511 1.16065 0.808451C1.16062 0.808421 1.16059 0.808403 1.16059 0.808396C1.16058 0.808392 1.16059 0.808395 1.16058 0.808393C1.16059 0.808399 1.1606 0.808408 1 1ZM8.67335 6.42644C10.3265 7.36297 12.2046 8.3364 14.271 9.26494L14.476 8.80886C12.4252 7.8874 10.561 6.92118 8.91981 5.9914L8.67335 6.42644ZM20.1239 11.5511C22.0485 12.1902 24.0768 12.7524 26.189 13.1937L26.2913 12.7043C24.1994 12.2672 22.1897 11.7102 20.2815 11.0766L20.1239 11.5511ZM32.413 14.086C33.4483 14.1652 34.4975 14.21 35.5587 14.2163L35.5616 13.7163C34.5126 13.7101 33.4752 13.6658 32.4511 13.5875L32.413 14.086ZM35.5587 14.2163C36.6355 14.2226 37.702 14.1879 38.7559 14.1165L38.7221 13.6177C37.68 13.6882 36.6257 13.7226 35.5616 13.7163L35.5587 14.2163ZM45.0858 13.2512C47.229 12.8143 49.2929 12.2509 51.2552 11.6072L51.0994 11.1321C49.1535 11.7704 47.1084 12.3286 44.9859 12.7613L45.0858 13.2512ZM57.2098 9.30668C59.3102 8.37312 61.2242 7.39281 62.9117 6.44929L62.6677 6.01287C60.9919 6.94986 59.0915 7.92313 57.0067 8.84978L57.2098 9.30668ZM68.3385 3.08259C68.611 2.89503 68.8634 2.71803 69.0949 2.5532L68.805 2.14586C68.5755 2.30921 68.3253 2.4847 68.055 2.67074L68.3385 3.08259ZM35.5601 13.9663L35.5572 14.4663L35.5601 13.9663ZM70.7501 1L65.0116 1.63511L68.4309 6.28721L70.7501 1ZM1 1C0.678799 1.38318 0.67883 1.38321 0.678864 1.38324C0.67888 1.38325 0.678918 1.38328 0.67895 1.38331C0.679014 1.38336 0.679091 1.38343 0.679182 1.3835C0.679363 1.38366 0.679599 1.38385 0.679889 1.3841C0.680468 1.38458 0.681263 1.38525 0.682274 1.38609C0.684295 1.38777 0.687177 1.39018 0.690916 1.39328C0.698392 1.39949 0.709295 1.40851 0.723584 1.42026C0.752162 1.44376 0.794288 1.47818 0.849652 1.52281C0.960378 1.61208 1.12407 1.74223 1.33825 1.9077C1.76658 2.23864 2.39697 2.71097 3.20958 3.28022L3.78333 2.46119C2.98451 1.9016 2.36668 1.43858 1.94964 1.11637C1.74113 0.955278 1.58285 0.829408 1.47728 0.744297C1.42449 0.701742 1.38488 0.66938 1.35877 0.647901C1.34571 0.637162 1.33602 0.629145 1.32975 0.623935C1.32661 0.62133 1.32433 0.619427 1.3229 0.618237C1.32219 0.617642 1.32169 0.617225 1.32141 0.616988C1.32126 0.616869 1.32118 0.616795 1.32114 0.616767C1.32113 0.616752 1.32112 0.616749 1.32113 0.616758C1.32114 0.616762 1.32115 0.616776 1.32116 0.616778C1.32118 0.616796 1.3212 0.616816 1 1ZM8.55013 6.64396C10.2092 7.58386 12.0942 8.5609 14.1686 9.49297L14.5784 8.58082C12.5356 7.6629 10.6783 6.70028 9.04304 5.77388L8.55013 6.64396ZM20.0451 11.7883C21.9779 12.4301 24.0154 12.9949 26.1379 13.4384L26.3424 12.4596C24.2608 12.0246 22.2603 11.4702 20.3602 10.8393L20.0451 11.7883ZM32.3939 14.3353C33.4349 14.4149 34.49 14.46 35.5572 14.4663L35.5631 13.4663C34.5202 13.4602 33.4886 13.4161 32.4702 13.3382L32.3939 14.3353ZM35.5572 14.4663C36.6404 14.4727 37.713 14.4377 38.7728 14.3659L38.7053 13.3682C37.669 13.4384 36.6208 13.4725 35.5631 13.4663L35.5572 14.4663ZM45.1357 13.4962C47.2894 13.0571 49.3626 12.4912 51.3331 11.8447L51.0214 10.8945C49.0838 11.5302 47.048 12.0858 44.9359 12.5163L45.1357 13.4962ZM57.3113 9.53513C59.4195 8.59811 61.3404 7.61429 63.0337 6.66749L62.5457 5.79466C60.8758 6.72838 58.9822 7.69814 56.9052 8.62133L57.3113 9.53513Z" fill="#444444"/>
</svg>
