<svg width="71" height="15" viewBox="0 0 71 15" fill="none" xmlns="http://www.w3.org/2000/svg">
<path d="M35.5601 1.0005L35.5587 0.750505L35.5601 1.0005ZM70.7501 13.9668L67.884 13.6221L69.6156 11.3123L70.7501 13.9668ZM1 13.9668C0.8394 13.7752 0.839417 13.7752 0.839437 13.7752C0.839449 13.7752 0.839472 13.7751 0.839495 13.7751C0.839541 13.7751 0.839599 13.775 0.839672 13.775C0.839817 13.7749 0.840015 13.7747 0.840268 13.7745C0.840774 13.7741 0.841495 13.7735 0.842431 13.7727C0.844303 13.7711 0.847036 13.7688 0.850624 13.7659C0.8578 13.7599 0.868399 13.7511 0.88238 13.7396C0.910342 13.7166 0.951838 13.6827 1.00656 13.6386C1.116 13.5504 1.27833 13.4213 1.49109 13.2569C1.9166 12.9282 2.54385 12.4582 3.35301 11.8913L3.63989 12.3008C2.83762 12.8629 2.21665 13.3282 1.79679 13.6526C1.58686 13.8148 1.42723 13.9417 1.32037 14.0279C1.26694 14.0709 1.2267 14.1038 1.19997 14.1258C1.18661 14.1368 1.17662 14.1451 1.17004 14.1505C1.16675 14.1533 1.16432 14.1553 1.16275 14.1566C1.16196 14.1573 1.16138 14.1577 1.16103 14.158C1.16085 14.1582 1.16072 14.1583 1.16065 14.1583C1.16062 14.1584 1.16059 14.1584 1.16059 14.1584C1.16058 14.1584 1.16059 14.1584 1.16058 14.1584C1.16059 14.1584 1.1606 14.1584 1 13.9668ZM8.67335 8.54036C10.3265 7.60383 12.2046 6.6304 14.271 5.70186L14.476 6.15794C12.4252 7.0794 10.561 8.04562 8.91981 8.9754L8.67335 8.54036ZM20.1239 3.41572C22.0485 2.77664 24.0768 2.21444 26.189 1.77309L26.2913 2.26252C24.1994 2.6996 22.1897 3.25661 20.2815 3.89025L20.1239 3.41572ZM32.413 0.88075C33.4483 0.801604 34.4975 0.756765 35.5587 0.750505L35.5616 1.2505C34.5126 1.25668 33.4752 1.30101 32.4511 1.3793L32.413 0.88075ZM35.5587 0.750505C36.6355 0.744152 37.702 0.77894 38.7559 0.850281L38.7221 1.34914C37.68 1.27859 36.6257 1.24422 35.5616 1.2505L35.5587 0.750505ZM45.0858 1.71558C47.229 2.15251 49.2929 2.71586 51.2552 3.35965L51.0994 3.83473C49.1535 3.19635 47.1084 2.6382 44.9859 2.2055L45.0858 1.71558ZM57.2098 5.66011C59.3102 6.59368 61.2242 7.57399 62.9117 8.51751L62.6677 8.95393C60.9919 8.01694 59.0915 7.04366 57.0067 6.11701L57.2098 5.66011ZM68.3385 11.8842C68.611 12.0718 68.8634 12.2488 69.0949 12.4136L68.805 12.8209C68.5755 12.6576 68.3253 12.4821 68.055 12.2961L68.3385 11.8842ZM35.5601 1.0005L35.5572 0.500509L35.5601 1.0005ZM70.7501 13.9668L65.0116 13.3317L68.4309 8.67959L70.7501 13.9668ZM1 13.9668C0.678799 13.5836 0.67883 13.5836 0.678864 13.5836C0.67888 13.5835 0.678918 13.5835 0.67895 13.5835C0.679014 13.5834 0.679091 13.5834 0.679182 13.5833C0.679363 13.5831 0.679599 13.5829 0.679889 13.5827C0.680468 13.5822 0.681263 13.5816 0.682274 13.5807C0.684295 13.579 0.687177 13.5766 0.690916 13.5735C0.698392 13.5673 0.709295 13.5583 0.723584 13.5465C0.752162 13.523 0.794288 13.4886 0.849652 13.444C0.960378 13.3547 1.12407 13.2246 1.33825 13.0591C1.76658 12.7282 2.39697 12.2558 3.20958 11.6866L3.78333 12.5056C2.98451 13.0652 2.36668 13.5282 1.94964 13.8504C1.74113 14.0115 1.58285 14.1374 1.47728 14.2225C1.42449 14.2651 1.38488 14.2974 1.35877 14.3189C1.34571 14.3296 1.33602 14.3377 1.32975 14.3429C1.32661 14.3455 1.32433 14.3474 1.3229 14.3486C1.32219 14.3492 1.32169 14.3496 1.32141 14.3498C1.32126 14.3499 1.32118 14.35 1.32114 14.35C1.32113 14.35 1.32112 14.35 1.32113 14.35C1.32114 14.35 1.32115 14.35 1.32116 14.35C1.32118 14.35 1.3212 14.35 1 13.9668ZM8.55013 8.32284C10.2092 7.38294 12.0942 6.4059 14.1686 5.47382L14.5784 6.38597C12.5356 7.3039 10.6783 8.26651 9.04304 9.19292L8.55013 8.32284ZM20.0451 3.17846C21.9779 2.53666 24.0154 1.97185 26.1379 1.52838L26.3424 2.50724C24.2608 2.94218 22.2603 3.4966 20.3602 4.12751L20.0451 3.17846ZM32.3939 0.631477C33.4349 0.5519 34.49 0.506805 35.5572 0.500509L35.5631 1.50049C34.5202 1.50664 33.4886 1.55072 32.4702 1.62857L32.3939 0.631477ZM35.5572 0.500509C36.6404 0.49412 37.713 0.529114 38.7728 0.600852L38.7053 1.59857C37.669 1.52842 36.6208 1.49425 35.5631 1.50049L35.5572 0.500509ZM45.1357 1.47061C47.2894 1.90967 49.3626 2.47561 51.3331 3.1221L51.0214 4.07228C49.0838 3.4366 47.048 2.88104 44.9359 2.45046L45.1357 1.47061ZM57.3113 5.43166C59.4195 6.36869 61.3404 7.35251 63.0337 8.2993L62.5457 9.17213C60.8758 8.23841 58.9822 7.26865 56.9052 6.34547L57.3113 5.43166Z" fill="#444444"/>
</svg>
