<svg width="73" height="73" viewBox="0 0 73 73" fill="none" xmlns="http://www.w3.org/2000/svg">
<g filter="url(#filter0_d_1_4435)">
<circle cx="36.5" cy="32.5" r="30.5" fill="white" fill-opacity="0.01" shape-rendering="crispEdges"/>
</g>
<path d="M23.8334 35.456L30.0494 27.56H23.8334V35.456ZM32.2094 37.64V29.816L26.1134 37.64H32.2094ZM33.8894 41H22.1294L20.4734 39.344V25.904L22.1294 24.2H33.8894L35.5454 25.904V39.344L33.8894 41ZM50.8704 41H39.1104L37.4544 39.344V35.984H40.8144V37.64H49.1904V34.304H42.4704V30.944L49.1904 27.56H40.8144V29.24H37.4544V24.2H52.5264V28.976L48.3024 30.92H50.8704L52.5264 32.6V39.344L50.8704 41Z" fill="#EE562F"/>
<path d="M23.8334 35.456L30.0494 27.56H23.8334V35.456ZM32.2094 37.64V29.816L26.1134 37.64H32.2094ZM33.8894 41H22.1294L20.4734 39.344V25.904L22.1294 24.2H33.8894L35.5454 25.904V39.344L33.8894 41ZM50.8704 41H39.1104L37.4544 39.344V35.984H40.8144V37.64H49.1904V34.304H42.4704V30.944L49.1904 27.56H40.8144V29.24H37.4544V24.2H52.5264V28.976L48.3024 30.92H50.8704L52.5264 32.6V39.344L50.8704 41Z" fill="url(#paint0_linear_1_4435)" fill-opacity="0.15"/>
<defs>
<filter id="filter0_d_1_4435" x="0" y="0" width="73" height="73" filterUnits="userSpaceOnUse" color-interpolation-filters="sRGB">
<feFlood flood-opacity="0" result="BackgroundImageFix"/>
<feColorMatrix in="SourceAlpha" type="matrix" values="0 0 0 0 0 0 0 0 0 0 0 0 0 0 0 0 0 0 127 0" result="hardAlpha"/>
<feOffset dy="4"/>
<feGaussianBlur stdDeviation="3"/>
<feComposite in2="hardAlpha" operator="out"/>
<feColorMatrix type="matrix" values="0 0 0 0 0.266667 0 0 0 0 0.266667 0 0 0 0 0.266667 0 0 0 0.2 0"/>
<feBlend mode="normal" in2="BackgroundImageFix" result="effect1_dropShadow_1_4435"/>
<feBlend mode="normal" in="SourceGraphic" in2="effect1_dropShadow_1_4435" result="shape"/>
</filter>
<linearGradient id="paint0_linear_1_4435" x1="19" y1="19" x2="37.7469" y2="52.1824" gradientUnits="userSpaceOnUse">
<stop stop-color="white" stop-opacity="0"/>
<stop offset="0.546875" stop-color="white"/>
<stop offset="1" stop-color="white" stop-opacity="0"/>
</linearGradient>
</defs>
</svg>
